<mxfile host="app.diagrams.net" agent="Mozilla/5.0 (Windows NT 10.0; Win64; x64) AppleWebKit/537.36 (KHTML, like Gecko) Chrome/133.0.0.0 Safari/537.36 Edg/133.0.0.0" version="26.0.16">
  <diagram id="C5RBs43oDa-KdzZeNtuy" name="Page-1">
    <mxGraphModel dx="1010" dy="704" grid="1" gridSize="10" guides="1" tooltips="1" connect="1" arrows="1" fold="1" page="1" pageScale="1" pageWidth="827" pageHeight="1169" math="0" shadow="0">
      <root>
        <mxCell id="WIyWlLk6GJQsqaUBKTNV-0" />
        <mxCell id="WIyWlLk6GJQsqaUBKTNV-1" parent="WIyWlLk6GJQsqaUBKTNV-0" />
        <mxCell id="rS959MfTM9qoBUmcyIPQ-16" style="edgeStyle=orthogonalEdgeStyle;rounded=0;orthogonalLoop=1;jettySize=auto;html=1;exitX=0.5;exitY=0;exitDx=0;exitDy=0;entryX=0.5;entryY=1;entryDx=0;entryDy=0;" edge="1" parent="WIyWlLk6GJQsqaUBKTNV-1" source="rS959MfTM9qoBUmcyIPQ-0" target="rS959MfTM9qoBUmcyIPQ-13">
          <mxGeometry relative="1" as="geometry" />
        </mxCell>
        <mxCell id="rS959MfTM9qoBUmcyIPQ-17" style="edgeStyle=orthogonalEdgeStyle;rounded=0;orthogonalLoop=1;jettySize=auto;html=1;exitX=0.5;exitY=0;exitDx=0;exitDy=0;entryX=0.5;entryY=1;entryDx=0;entryDy=0;" edge="1" parent="WIyWlLk6GJQsqaUBKTNV-1" source="rS959MfTM9qoBUmcyIPQ-0" target="rS959MfTM9qoBUmcyIPQ-14">
          <mxGeometry relative="1" as="geometry" />
        </mxCell>
        <mxCell id="rS959MfTM9qoBUmcyIPQ-18" style="edgeStyle=orthogonalEdgeStyle;rounded=0;orthogonalLoop=1;jettySize=auto;html=1;exitX=0.5;exitY=0;exitDx=0;exitDy=0;entryX=0.5;entryY=1;entryDx=0;entryDy=0;" edge="1" parent="WIyWlLk6GJQsqaUBKTNV-1" source="rS959MfTM9qoBUmcyIPQ-0" target="rS959MfTM9qoBUmcyIPQ-15">
          <mxGeometry relative="1" as="geometry" />
        </mxCell>
        <mxCell id="rS959MfTM9qoBUmcyIPQ-21" style="edgeStyle=orthogonalEdgeStyle;rounded=0;orthogonalLoop=1;jettySize=auto;html=1;exitX=0.5;exitY=1;exitDx=0;exitDy=0;entryX=0.5;entryY=0;entryDx=0;entryDy=0;endArrow=none;startFill=0;startArrow=ERone;endSize=12;startSize=12;" edge="1" parent="WIyWlLk6GJQsqaUBKTNV-1" source="rS959MfTM9qoBUmcyIPQ-0" target="rS959MfTM9qoBUmcyIPQ-20">
          <mxGeometry relative="1" as="geometry" />
        </mxCell>
        <mxCell id="rS959MfTM9qoBUmcyIPQ-0" value="Safari" style="html=1;whiteSpace=wrap;" vertex="1" parent="WIyWlLk6GJQsqaUBKTNV-1">
          <mxGeometry x="460" y="260" width="110" height="50" as="geometry" />
        </mxCell>
        <mxCell id="rS959MfTM9qoBUmcyIPQ-1" value="Animal" style="html=1;whiteSpace=wrap;" vertex="1" parent="WIyWlLk6GJQsqaUBKTNV-1">
          <mxGeometry x="240" y="560" width="110" height="50" as="geometry" />
        </mxCell>
        <mxCell id="rS959MfTM9qoBUmcyIPQ-3" value="Road" style="html=1;whiteSpace=wrap;" vertex="1" parent="WIyWlLk6GJQsqaUBKTNV-1">
          <mxGeometry x="810" y="390" width="110" height="50" as="geometry" />
        </mxCell>
        <mxCell id="rS959MfTM9qoBUmcyIPQ-5" value="Mountain" style="html=1;whiteSpace=wrap;" vertex="1" parent="WIyWlLk6GJQsqaUBKTNV-1">
          <mxGeometry x="790" y="500" width="110" height="50" as="geometry" />
        </mxCell>
        <mxCell id="rS959MfTM9qoBUmcyIPQ-6" value="Safari" style="html=1;whiteSpace=wrap;" vertex="1" parent="WIyWlLk6GJQsqaUBKTNV-1">
          <mxGeometry x="1360" y="370" width="110" height="50" as="geometry" />
        </mxCell>
        <mxCell id="rS959MfTM9qoBUmcyIPQ-7" value="Safari" style="html=1;whiteSpace=wrap;" vertex="1" parent="WIyWlLk6GJQsqaUBKTNV-1">
          <mxGeometry x="1360" y="460" width="110" height="50" as="geometry" />
        </mxCell>
        <mxCell id="rS959MfTM9qoBUmcyIPQ-8" value="Plant" style="html=1;whiteSpace=wrap;" vertex="1" parent="WIyWlLk6GJQsqaUBKTNV-1">
          <mxGeometry x="460" y="500" width="110" height="50" as="geometry" />
        </mxCell>
        <mxCell id="rS959MfTM9qoBUmcyIPQ-9" value="Jeep" style="html=1;whiteSpace=wrap;" vertex="1" parent="WIyWlLk6GJQsqaUBKTNV-1">
          <mxGeometry x="980" y="410" width="110" height="50" as="geometry" />
        </mxCell>
        <mxCell id="rS959MfTM9qoBUmcyIPQ-10" value="Tourist" style="html=1;whiteSpace=wrap;" vertex="1" parent="WIyWlLk6GJQsqaUBKTNV-1">
          <mxGeometry x="990" y="530" width="110" height="50" as="geometry" />
        </mxCell>
        <mxCell id="rS959MfTM9qoBUmcyIPQ-13" value="Date&lt;span style=&quot;color: rgba(0, 0, 0, 0); font-family: monospace; font-size: 0px; text-align: start; text-wrap-mode: nowrap;&quot;&gt;%3CmxGraphModel%3E%3Croot%3E%3CmxCell%20id%3D%220%22%2F%3E%3CmxCell%20id%3D%221%22%20parent%3D%220%22%2F%3E%3CmxCell%20id%3D%222%22%20value%3D%22Safari%22%20style%3D%22html%3D1%3BwhiteSpace%3Dwrap%3B%22%20vertex%3D%221%22%20parent%3D%221%22%3E%3CmxGeometry%20x%3D%22980%22%20y%3D%22410%22%20width%3D%22110%22%20height%3D%2250%22%20as%3D%22geometry%22%2F%3E%3C%2FmxCell%3E%3C%2Froot%3E%3C%2FmxGraphModel%3E&lt;/span&gt;" style="ellipse;whiteSpace=wrap;html=1;" vertex="1" parent="WIyWlLk6GJQsqaUBKTNV-1">
          <mxGeometry x="270" y="130" width="140" height="70" as="geometry" />
        </mxCell>
        <mxCell id="rS959MfTM9qoBUmcyIPQ-14" value="Speed" style="ellipse;whiteSpace=wrap;html=1;" vertex="1" parent="WIyWlLk6GJQsqaUBKTNV-1">
          <mxGeometry x="445" y="130" width="140" height="70" as="geometry" />
        </mxCell>
        <mxCell id="rS959MfTM9qoBUmcyIPQ-15" value="Difficulty" style="ellipse;whiteSpace=wrap;html=1;" vertex="1" parent="WIyWlLk6GJQsqaUBKTNV-1">
          <mxGeometry x="620" y="130" width="140" height="70" as="geometry" />
        </mxCell>
        <mxCell id="rS959MfTM9qoBUmcyIPQ-23" style="edgeStyle=orthogonalEdgeStyle;rounded=0;orthogonalLoop=1;jettySize=auto;html=1;exitX=0.5;exitY=1;exitDx=0;exitDy=0;entryX=0.5;entryY=0;entryDx=0;entryDy=0;endArrow=ERzeroToMany;startFill=0;endFill=0;endSize=12;" edge="1" parent="WIyWlLk6GJQsqaUBKTNV-1" source="rS959MfTM9qoBUmcyIPQ-20" target="rS959MfTM9qoBUmcyIPQ-8">
          <mxGeometry relative="1" as="geometry" />
        </mxCell>
        <mxCell id="rS959MfTM9qoBUmcyIPQ-20" value="Consist" style="rhombus;whiteSpace=wrap;html=1;" vertex="1" parent="WIyWlLk6GJQsqaUBKTNV-1">
          <mxGeometry x="457.5" y="355" width="115" height="80" as="geometry" />
        </mxCell>
      </root>
    </mxGraphModel>
  </diagram>
</mxfile>
